<svg width="18" height="18" viewBox="0 0 18 18" fill="none" xmlns="http://www.w3.org/2000/svg">
<path d="M17.25 8.24977H0.75C0.335786 8.24977 0 8.58556 0 8.99978C0 9.41399 0.335786 9.74978 0.75 9.74978H17.25C17.6642 9.74978 18 9.41399 18 8.99978C18 8.58556 17.6642 8.24977 17.25 8.24977Z" fill="#374957"/>
<path d="M17.25 3.00023H0.75C0.335786 3.00023 0 3.33601 0 3.75023C0 4.16444 0.335786 4.50023 0.75 4.50023H17.25C17.6642 4.50023 18 4.16444 18 3.75023C18 3.33601 17.6642 3.00023 17.25 3.00023Z" fill="#374957"/>
<path d="M17.25 13.5H0.75C0.335786 13.5 0 13.8358 0 14.25C0 14.6642 0.335786 15 0.75 15H17.25C17.6642 15 18 14.6642 18 14.25C18 13.8358 17.6642 13.5 17.25 13.5Z" fill="#374957"/>
</svg>
