<svg width="69" height="85" viewBox="0 0 69 85" fill="none" xmlns="http://www.w3.org/2000/svg">
<path d="M42.2402 0C52.3533 0 61.635 3.5515 68.9072 9.47168C67.5329 16.8498 62.625 22.9855 56.002 26.0615C52.2969 22.9047 47.4918 20.998 42.2402 20.998C30.5222 20.9983 21.0234 30.4872 21.0234 42.1914C21.0237 53.8954 30.5224 63.3835 42.2402 63.3838C42.8505 63.3838 43.4546 63.3561 44.0518 63.3057C38.4929 70.7684 30.5182 76.3269 21.2832 78.8301C8.56803 71.5585 0.000172288 57.8747 0 42.1914C0 18.8902 18.9116 0.000257431 42.2402 0Z" fill="#98BBFF"/>
<path d="M55.3224 42.2019C55.3224 49.4122 49.4705 55.2572 42.2518 55.2572C35.033 55.2572 29.1811 49.4122 29.1811 42.2019C29.1811 34.9917 35.033 29.1467 42.2518 29.1467C49.4705 29.1467 55.3224 34.9917 55.3224 42.2019Z" fill="#2E6DE9"/>
<path d="M56.6579 57.7451C63.172 61.0471 67.8979 67.3588 69.0007 74.8486C61.7072 80.8393 52.369 84.4365 42.1891 84.4365C32.0096 84.4364 22.6718 80.8391 15.3786 74.8486C16.4813 67.3591 21.2067 61.0472 27.7204 57.7451C31.5106 61.2768 36.5968 63.4383 42.1891 63.4384C47.7815 63.4384 52.8675 61.2767 56.6579 57.7451Z" fill="#2E6DE9"/>
</svg>
