<svg width="20" height="20" viewBox="0 0 20 20" fill="none" xmlns="http://www.w3.org/2000/svg">
<g clip-path="url(#clip0_1_3571)">
<path d="M18.7499 3.31335H16.1782C16.0134 3.31339 15.8523 3.36228 15.7153 3.45385C15.5783 3.54542 15.4715 3.67556 15.4085 3.82781C15.3454 3.98006 15.3289 4.14759 15.3611 4.30921C15.3932 4.47084 15.4725 4.61931 15.589 4.73585L16.494 5.64085L13.5057 8.62836C13.3469 8.7801 13.1358 8.86479 12.9161 8.86479C12.6965 8.86479 12.4853 8.7801 12.3265 8.62836L12.1849 8.48586C11.7087 8.03091 11.0755 7.77704 10.417 7.77704C9.7584 7.77704 9.12519 8.03091 8.64904 8.48586L4.39904 12.7359C4.24245 12.8929 4.15466 13.1057 4.15497 13.3275C4.15528 13.5492 4.24368 13.7618 4.40071 13.9184C4.55774 14.0749 4.77054 14.1627 4.9923 14.1624C5.21406 14.1621 5.42662 14.0737 5.58321 13.9167L9.83321 9.66669C9.99189 9.51475 10.2031 9.42994 10.4228 9.42994C10.6425 9.42994 10.8537 9.51475 11.0124 9.66669L11.154 9.80919C11.6304 10.2638 12.2635 10.5174 12.922 10.5174C13.5804 10.5174 14.2135 10.2638 14.6899 9.80919L17.6782 6.82086L18.5832 7.72585C18.7001 7.84048 18.8483 7.91811 19.0091 7.94906C19.1698 7.98001 19.3362 7.9629 19.4873 7.89987C19.6384 7.83684 19.7677 7.73068 19.8588 7.59466C19.95 7.45863 19.999 7.29877 19.9999 7.13502V4.56335C19.9999 4.23183 19.8682 3.91389 19.6338 3.67947C19.3993 3.44505 19.0814 3.31335 18.7499 3.31335Z" fill="#224DD4"/>
<path d="M19.1667 18.3133H4.16667C3.50363 18.3133 2.86774 18.0499 2.3989 17.5811C1.93006 17.1123 1.66667 16.4764 1.66667 15.8133V0.833333C1.66667 0.61232 1.57887 0.400358 1.42259 0.244078C1.26631 0.0877974 1.05435 0 0.833333 0C0.61232 0 0.400358 0.0877974 0.244078 0.244078C0.0877974 0.400358 0 0.61232 0 0.833333L0 15.8133C0.00132321 16.918 0.440735 17.977 1.22185 18.7582C2.00296 19.5393 3.062 19.9787 4.16667 19.98H19.1667C19.3877 19.98 19.5996 19.8922 19.7559 19.7359C19.9122 19.5796 20 19.3677 20 19.1467C20 18.9257 19.9122 18.7137 19.7559 18.5574C19.5996 18.4011 19.3877 18.3133 19.1667 18.3133Z" fill="#224DD4"/>
</g>
<defs>
<clipPath id="clip0_1_3571">
<rect width="20" height="20" fill="white"/>
</clipPath>
</defs>
</svg>
