<svg width="24" height="24" viewBox="0 0 24 24" fill="none" xmlns="http://www.w3.org/2000/svg">
<g clip-path="url(#clip0_1_3595)">
<path d="M22.4998 3.97601H19.4138C19.2161 3.97606 19.0228 4.03473 18.8584 4.14461C18.694 4.2545 18.5658 4.41066 18.4902 4.59336C18.4145 4.77606 18.3947 4.97709 18.4333 5.17104C18.4718 5.365 18.567 5.54316 18.7068 5.68301L19.7928 6.76901L16.2068 10.354C16.0163 10.5361 15.7629 10.6377 15.4993 10.6377C15.2358 10.6377 14.9824 10.5361 14.7918 10.354L14.6218 10.183C14.0505 9.63708 13.2906 9.33244 12.5003 9.33244C11.7101 9.33244 10.9502 9.63708 10.3788 10.183L5.27885 15.283C5.09094 15.4715 4.98559 15.7268 4.98596 15.9929C4.98634 16.259 5.09241 16.5141 5.28085 16.702C5.46928 16.8899 5.72465 16.9953 5.99076 16.9949C6.25688 16.9945 6.51194 16.8885 6.69985 16.7L11.7998 11.6C11.9903 11.4177 12.2437 11.3159 12.5073 11.3159C12.771 11.3159 13.0244 11.4177 13.2148 11.6L13.3848 11.771C13.9565 12.3165 14.7162 12.6208 15.5063 12.6208C16.2965 12.6208 17.0562 12.3165 17.6278 11.771L21.2138 8.18501L22.2998 9.27101C22.4402 9.40856 22.6179 9.50172 22.8109 9.53886C23.0038 9.576 23.2034 9.55547 23.3848 9.47983C23.5661 9.4042 23.7212 9.27681 23.8306 9.11358C23.94 8.95035 23.9988 8.75851 23.9998 8.56201V5.47601C23.9998 5.07819 23.8418 4.69666 23.5605 4.41535C23.2792 4.13405 22.8977 3.97601 22.4998 3.97601Z" fill="#224DD4"/>
<path d="M23 21.976H5C4.20435 21.976 3.44129 21.6599 2.87868 21.0973C2.31607 20.5347 2 19.7716 2 18.976V1C2 0.734784 1.89464 0.48043 1.70711 0.292893C1.51957 0.105357 1.26522 0 1 0C0.734784 0 0.48043 0.105357 0.292893 0.292893C0.105357 0.48043 0 0.734784 0 1L0 18.976C0.00158786 20.3016 0.528882 21.5724 1.46622 22.5098C2.40356 23.4471 3.67441 23.9744 5 23.976H23C23.2652 23.976 23.5196 23.8706 23.7071 23.6831C23.8946 23.4956 24 23.2412 24 22.976C24 22.7108 23.8946 22.4564 23.7071 22.2689C23.5196 22.0814 23.2652 21.976 23 21.976Z" fill="#224DD4"/>
</g>
<defs>
<clipPath id="clip0_1_3595">
<rect width="24" height="24" fill="white"/>
</clipPath>
</defs>
</svg>
